<?xml version="1.0" encoding="UTF-8"?><svg xmlns="http://www.w3.org/2000/svg" xmlns:xlink="http://www.w3.org/1999/xlink" fill-opacity="1" color-rendering="auto" color-interpolation="auto" text-rendering="auto" stroke="black" stroke-linecap="square" width="378" stroke-miterlimit="10" shape-rendering="auto" stroke-opacity="1" fill="black" stroke-dasharray="none" font-weight="normal" stroke-width="1" height="325" font-family="'Dialog'" font-style="normal" stroke-linejoin="miter" font-size="12px" stroke-dashoffset="0" image-rendering="auto">
  <!--Generated by ySVG 2.5-->
  <defs id="genericDefs"/>
  <g>
    <defs id="defs1">
      <linearGradient x1="600" gradientUnits="userSpaceOnUse" x2="660" y1="442" y2="482" id="linearGradient1" spreadMethod="reflect">
        <stop stop-opacity="1" stop-color="rgb(232,238,247)" offset="0%"/>
        <stop stop-opacity="1" stop-color="rgb(183,201,227)" offset="100%"/>
      </linearGradient>
      <clipPath clipPathUnits="userSpaceOnUse" id="clipPath1">
        <path d="M0 0 L378 0 L378 325 L0 325 L0 0 Z"/>
      </clipPath>
      <clipPath clipPathUnits="userSpaceOnUse" id="clipPath2">
        <path d="M456 192 L834 192 L834 517 L456 517 L456 192 Z"/>
      </clipPath>
    </defs>
    <g text-rendering="geometricPrecision" stroke-miterlimit="1.45" stroke-dasharray="6,2" shape-rendering="geometricPrecision" transform="matrix(1,0,0,1,-456,-192)" stroke-linecap="butt">
      <rect x="471" y="288" clip-path="url(#clipPath2)" fill="none" width="348" rx="4" ry="4" height="214"/>
    </g>
    <g text-rendering="geometricPrecision" stroke-miterlimit="1.45" shape-rendering="geometricPrecision" font-family="sans-serif" transform="matrix(1,0,0,1,-456,-192)" stroke-linecap="butt">
      <text x="477" xml:space="preserve" y="305.1387" clip-path="url(#clipPath2)" stroke="none">Linux system</text>
    </g>
    <g fill="rgb(255,204,0)" text-rendering="geometricPrecision" shape-rendering="geometricPrecision" transform="matrix(1,0,0,1,-456,-192)" stroke="rgb(255,204,0)">
      <rect x="479" y="312" clip-path="url(#clipPath2)" width="199" rx="4" ry="4" height="26" stroke="none"/>
    </g>
    <g text-rendering="geometricPrecision" stroke-miterlimit="1.45" shape-rendering="geometricPrecision" transform="matrix(1,0,0,1,-456,-192)" stroke-linecap="butt">
      <rect x="479" y="312" clip-path="url(#clipPath2)" fill="none" width="199" rx="4" ry="4" height="26"/>
      <text x="548.541" xml:space="preserve" y="329.1543" clip-path="url(#clipPath2)" font-family="sans-serif" stroke="none">REST APIs</text>
    </g>
    <g fill="silver" text-rendering="geometricPrecision" shape-rendering="geometricPrecision" transform="matrix(1,0,0,1,-456,-192)" stroke="silver">
      <rect x="479" y="207" clip-path="url(#clipPath2)" width="199" rx="4" ry="4" height="40" stroke="none"/>
    </g>
    <g text-rendering="geometricPrecision" stroke-miterlimit="1.45" shape-rendering="geometricPrecision" transform="matrix(1,0,0,1,-456,-192)" stroke-linecap="butt">
      <rect x="479" y="207" clip-path="url(#clipPath2)" fill="none" width="199" rx="4" ry="4" height="40"/>
      <text x="538.7148" xml:space="preserve" y="231.1543" clip-path="url(#clipPath2)" font-family="sans-serif" stroke="none">Web Browser</text>
    </g>
    <g fill="rgb(255,204,0)" text-rendering="geometricPrecision" shape-rendering="geometricPrecision" transform="matrix(1,0,0,1,-456,-192)" stroke="rgb(255,204,0)">
      <rect x="479" y="338" clip-path="url(#clipPath2)" width="199" rx="4" ry="4" height="40" stroke="none"/>
    </g>
    <g text-rendering="geometricPrecision" stroke-miterlimit="1.45" shape-rendering="geometricPrecision" transform="matrix(1,0,0,1,-456,-192)" stroke-linecap="butt">
      <rect x="479" y="338" clip-path="url(#clipPath2)" fill="none" width="199" rx="4" ry="4" height="40"/>
      <text x="548.2041" xml:space="preserve" y="362.1543" clip-path="url(#clipPath2)" font-family="sans-serif" stroke="none">file-server</text>
    </g>
    <g fill="silver" text-rendering="geometricPrecision" shape-rendering="geometricPrecision" transform="matrix(1,0,0,1,-456,-192)" stroke="silver">
      <rect x="479" y="436" clip-path="url(#clipPath2)" width="199" rx="4" ry="4" height="51" stroke="none"/>
    </g>
    <g text-rendering="geometricPrecision" stroke-miterlimit="1.45" shape-rendering="geometricPrecision" transform="matrix(1,0,0,1,-456,-192)" stroke-linecap="butt">
      <rect x="479" y="436" clip-path="url(#clipPath2)" fill="none" width="199" rx="4" ry="4" height="51"/>
      <text x="497.9248" xml:space="preserve" y="465.6543" clip-path="url(#clipPath2)" font-family="sans-serif" stroke="none">File system</text>
    </g>
    <g fill="rgb(255,204,0)" text-rendering="geometricPrecision" shape-rendering="geometricPrecision" transform="matrix(1,0,0,1,-456,-192)" stroke="rgb(255,204,0)">
      <path d="M708 319 L793 319 L793 334 L808 334 L808 397 L708 397 Z" stroke="none" clip-path="url(#clipPath2)"/>
      <path fill="white" d="M793 319 L793 334 L808 334 Z" clip-path="url(#clipPath2)" fill-rule="evenodd" stroke="none"/>
    </g>
    <g text-rendering="geometricPrecision" stroke-miterlimit="1.45" shape-rendering="geometricPrecision" transform="matrix(1,0,0,1,-456,-192)" stroke-linecap="butt">
      <path fill="none" d="M708 319 L793 319 L793 334 L808 334 L808 397 L708 397 Z" clip-path="url(#clipPath2)"/>
      <path fill="none" d="M793 319 L793 334 L808 334 Z" clip-path="url(#clipPath2)" fill-rule="evenodd"/>
      <text x="711.9336" xml:space="preserve" y="341.2012" clip-path="url(#clipPath2)" font-family="sans-serif" stroke="none">application.yml</text>
      <text x="711.9336" xml:space="preserve" y="355.1699" clip-path="url(#clipPath2)" font-family="sans-serif" stroke="none">config</text>
      <text x="711.9336" xml:space="preserve" y="369.1387" clip-path="url(#clipPath2)" font-family="sans-serif" stroke="none">users</text>
      <text x="711.9336" xml:space="preserve" y="383.1074" clip-path="url(#clipPath2)" font-family="sans-serif" stroke="none">roles</text>
    </g>
    <g fill="url(#linearGradient1)" text-rendering="geometricPrecision" shape-rendering="geometricPrecision" transform="matrix(1,0,0,1,-456,-192)" stroke="url(#linearGradient1)">
      <path d="M600 450 C601.8 442 658.2 442 660 450 L660 474 C658.2 482 601.8 482 600 474 Z" stroke="none" clip-path="url(#clipPath2)"/>
    </g>
    <g text-rendering="geometricPrecision" stroke-miterlimit="1.45" shape-rendering="geometricPrecision" transform="matrix(1,0,0,1,-456,-192)" stroke-linecap="butt">
      <path fill="none" d="M600 450 C601.8 442 658.2 442 660 450 L660 474 C658.2 482 601.8 482 600 474 Z" clip-path="url(#clipPath2)"/>
      <path fill="none" d="M660 450 C658.2 458 601.8 458 600 450" clip-path="url(#clipPath2)"/>
    </g>
    <g text-rendering="geometricPrecision" stroke-miterlimit="1.45" shape-rendering="geometricPrecision" transform="matrix(1,0,0,1,-456,-192)" stroke-linecap="butt">
      <path fill="none" d="M578.5 254.9541 L578.5 304.0051" clip-path="url(#clipPath2)"/>
      <path d="M578.5 246.9541 L573.5 258.9541 L578.5 255.9541 L583.5 258.9541 Z" clip-path="url(#clipPath2)" stroke="none"/>
      <path d="M578.5 312.0051 L583.5 300.0051 L578.5 303.0051 L573.5 300.0051 Z" clip-path="url(#clipPath2)" stroke="none"/>
      <text x="528.376" xml:space="preserve" y="265.1387" clip-path="url(#clipPath2)" font-family="sans-serif" stroke="none">http(s)</text>
      <path fill="none" d="M578.5 385.9874 L578.5 428.014" clip-path="url(#clipPath2)"/>
      <path d="M578.5 377.9874 L573.5 389.9874 L578.5 386.9874 L583.5 389.9874 Z" clip-path="url(#clipPath2)" stroke="none"/>
      <path d="M578.5 436.014 L583.5 424.014 L578.5 427.014 L573.5 424.014 Z" clip-path="url(#clipPath2)" stroke="none"/>
      <path fill="none" d="M707.9977 358 L685.9944 358" clip-path="url(#clipPath2)"/>
      <path d="M677.9944 358 L689.9944 363 L686.9944 358 L689.9944 353 Z" clip-path="url(#clipPath2)" stroke="none"/>
    </g>
  </g>
</svg>
